<?xml version="1.0" encoding="utf-8"?>
<!-- Generator: Adobe Illustrator 21.1.0, SVG Export Plug-In . SVG Version: 6.00 Build 0)  -->
<svg version="1.1" id="Layer_1" xmlns="http://www.w3.org/2000/svg" xmlns:xlink="http://www.w3.org/1999/xlink" x="0px" y="0px"
	 width="254.5px" height="204.3px" viewBox="0 0 254.5 204.3" style="enable-background:new 0 0 254.5 204.3;" xml:space="preserve"
	>
<style type="text/css">
	.st0{display:none;}
	.st1{display:inline;fill:url(#SVGID_1_);}
	.st2{display:inline;}
	.st3{opacity:0.2;fill:#302D70;}
	.st4{fill:#232056;}
	.st5{fill:#302D70;}
	.st6{fill:#0D0E17;}
	.st7{fill:url(#SVGID_2_);}
	.st8{opacity:0.8;fill:#232056;}
	.st9{opacity:0.6;fill:#FFFFFF;}
	.st10{fill:#B1E2F4;}
	.st11{fill:#FFFFFF;}
	.st12{fill:#F0D17E;}
	.st13{fill:#010101;}
	.st14{fill:none;stroke:#010101;stroke-width:0.8506;stroke-linecap:round;stroke-miterlimit:10;}
	.st15{fill:none;stroke:#010101;stroke-width:1.1647;stroke-miterlimit:10;}
	.st16{display:inline;fill:#FFFFFF;}
	.st17{display:inline;fill:url(#SVGID_3_);}
	.st18{display:inline;fill:#F0D17E;}
	.st19{display:inline;fill:#CD9B2B;}
	.st20{display:inline;fill:#AC7E2C;}
	.st21{display:inline;fill:#302D70;}
	.st22{display:inline;fill:url(#SVGID_4_);}
	.st23{fill:#C41F3E;}
	.st24{fill:#EF354E;}
	.st25{display:inline;fill:#232056;}
	.st26{display:inline;fill:#E5E5E5;}
	.st27{display:inline;fill:#B1E2F4;}
	.st28{display:inline;opacity:0.5;fill:#302D70;}
	.st29{fill:url(#SVGID_5_);}
	.st30{fill:#1A1A1E;}
	.st31{fill:#3D3F99;}
	.st32{fill:#E5E5E5;}
	.st33{fill:#BFBFBF;}
	.st34{fill:#0F101D;}
	.st35{opacity:0.3;fill:#FFFFFF;}
</style>
<g class="st0">
	<linearGradient id="SVGID_1_" gradientUnits="userSpaceOnUse" x1="49.6654" y1="-4.8292" x2="250.8278" y2="334.5302">
		<stop  offset="0" style="stop-color:#474B9F"/>
		<stop  offset="1" style="stop-color:#F179AF"/>
	</linearGradient>
	<path class="st1" d="M254.5,147.3c0,44.4-41.8,57-68.3,57c-40.6,0-86.5,0.1-127.8,0.1C9.9,204.4,0,178.8,0,164.5
		c0-17.5,10.2-21.5,10.2-42.7C10.2,108.9,0,82.1,0,62.3C0,46,6.1,35.8,15.5,29.5c21.2-14.3,59.1-8.6,80.7-8.6
		c31.2,0,50.3-20.9,81.1-20.9c50.1,0,53.8,43.4,53.8,72.5c0,1.5,0.1,2.9,0.2,4.3C233.3,104.3,254.5,118.5,254.5,147.3z"/>
	<g class="st2">
		<path class="st3" d="M103.1,196.3l118.2-26.1c2.4-0.5,2.8-3.9,0.6-5l-63-30.6L33,162.4c-2.4,0.5-2.8,3.9-0.6,5l56.1,27.2
			C93,196.8,98.2,197.4,103.1,196.3z"/>
		<path class="st4" d="M99.5,163.9l130.7-28.8c2.1-0.5,3.7-2.4,3.7-4.6v-7.7L20.5,120v7.5c0,1.8,1,3.4,2.6,4.2l63.3,30.7
			C90.4,164.4,95.1,164.9,99.5,163.9z"/>
		<path class="st5" d="M99.5,154.7l132.8-29.4c1.8-0.4,2.1-2.9,0.4-3.7l-71-34.4L22,118.1c-1.8,0.4-2.1,2.9-0.4,3.7l64.8,31.4
			C90.4,155.2,95.1,155.7,99.5,154.7z"/>
		<polygon class="st6" points="206.2,111.3 204.2,111.8 187.3,103.5 189.2,103.1 		"/>
		<linearGradient id="SVGID_2_" gradientUnits="userSpaceOnUse" x1="20.4726" y1="121.2182" x2="233.9088" y2="121.2182">
			<stop  offset="0" style="stop-color:#FFFFFF;stop-opacity:0.5"/>
			<stop  offset="1" style="stop-color:#FFFFFF;stop-opacity:0"/>
		</linearGradient>
		<path class="st7" d="M99.5,154.7l132.8-29.4c1.8-0.4,2.1-2.9,0.4-3.7l-71-34.4L22,118.1c-1.8,0.4-2.1,2.9-0.4,3.7l64.8,31.4
			C90.4,155.2,95.1,155.7,99.5,154.7z"/>
		<path class="st8" d="M77.2,138.5c0.1,0.7-0.3,1.4-1.1,1.5l-4.6,1c-2,0.4-4.1,0.2-5.9-0.7l-10.5-5.1c-0.2-0.1-0.4-0.3-0.5-0.4
			c0,0,0,0,0,0c-0.6-0.8-0.2-2,0.8-2.2l6.1-1.3c1-0.2,2.1-0.1,3,0.4l11.9,5.9C76.9,137.7,77.1,138.1,77.2,138.5
			C77.2,138.5,77.2,138.5,77.2,138.5z"/>
		<path class="st8" d="M77.2,138.5c0.1,0.7-0.3,1.4-1.1,1.5l-4.6,1c-2,0.4-4.1,0.2-5.9-0.7l-10.5-5.1c-0.2-0.1-0.4-0.3-0.5-0.4
			c0,0,0,0,0,0c-0.1-0.7,0.3-1.4,1.1-1.6l6.1-1.3c1-0.2,2.1-0.1,3,0.4l11.9,5.9C76.9,138.2,77.1,138.3,77.2,138.5
			C77.2,138.5,77.2,138.5,77.2,138.5z"/>
		<path class="st9" d="M231.3,76.8l-8.6,39.9l-1.3,6l-0.2,0.8l-58.5,12.9L128,144l-22.8,5l-3.7-1.8L46,120.4l-4.4-2.1l-1.2-4.2
			L15.5,29.5c21.2-14.3,59.1-8.6,80.7-8.6c31.2,0,50.3-20.9,81.1-20.9c50.1,0,53.8,43.4,53.8,72.5C231.1,74,231.2,75.4,231.3,76.8z"
			/>
		<polygon class="st10" points="41.6,118.2 157.8,92.7 221.2,123.5 105.2,149 		"/>
		<polygon class="st11" points="105.2,149 128,144 64.2,113.3 41.6,118.2 		"/>
		<polygon class="st3" points="129.6,139 156.3,133.5 117,114.5 90.4,120 		"/>
		<polygon class="st3" points="152,124 178.8,118.5 139.5,99.5 112.9,105 		"/>
		<g>
			<polygon class="st11" points="73.6,75.1 73.6,84.8 130.2,84.8 130.2,51.8 73.6,51.8 73.6,63.3 68.3,69.2 			"/>
		</g>
		<g>
			<g>
				<circle class="st12" cx="96.3" cy="68.3" r="10.2"/>
				<circle class="st13" cx="91.6" cy="67.1" r="1.2"/>
				<circle class="st13" cx="100.9" cy="67.1" r="1.2"/>
				<g>
					<path class="st14" d="M92.5,71.4c0.8,1.2,2.2,1.9,3.8,1.9s2.9-0.8,3.8-1.9"/>
				</g>
			</g>
		</g>
		<g>
			<polygon class="st11" points="190.1,84.5 190.1,74.8 133.5,74.8 133.5,107.8 190.1,107.8 190.1,96.3 195.4,90.4 			"/>
		</g>
		<g>
			<g>
				<circle class="st12" cx="168.6" cy="91.3" r="10.2"/>
				<g>
					<path class="st11" d="M173.5,94.4c0,0-0.3,3.7-4.9,3.7c-4.7,0-4.9-3.7-4.9-3.7S168.6,96.2,173.5,94.4z"/>
				</g>
			</g>
			<line class="st15" x1="171.6" y1="90.2" x2="174.8" y2="90.2"/>
			<line class="st15" x1="165.5" y1="90.2" x2="162.3" y2="90.2"/>
		</g>
	</g>
	<circle class="st16" cx="13.4" cy="67.1" r="1"/>
	<circle class="st16" cx="180" cy="190.9" r="1"/>
	<circle class="st16" cx="24.7" cy="96.1" r="1"/>
	<circle class="st16" cx="21.4" cy="179.4" r="1"/>
	<circle class="st16" cx="59.2" cy="187" r="1"/>
	<circle class="st16" cx="230.4" cy="165.3" r="1"/>
	<circle class="st16" cx="182" cy="43.5" r="1"/>
	<circle class="st16" cx="221.2" cy="149" r="1"/>
	<circle class="st16" cx="102.6" cy="93.2" r="1"/>
	<circle class="st16" cx="154.3" cy="42.5" r="1"/>
	<circle class="st16" cx="45.9" cy="38.9" r="1.7"/>
	<circle class="st16" cx="214.4" cy="84.8" r="1.7"/>
	<circle class="st16" cx="240.6" cy="147.4" r="1.7"/>
	<circle class="st16" cx="23" cy="145.7" r="1.7"/>
	<circle class="st16" cx="158.3" cy="25.2" r="1.7"/>
</g>
<g class="st0">
	<linearGradient id="SVGID_3_" gradientUnits="userSpaceOnUse" x1="-46.1792" y1="70.4783" x2="409.798" y2="140.9747">
		<stop  offset="0" style="stop-color:#474B9F"/>
		<stop  offset="1" style="stop-color:#F179AF"/>
	</linearGradient>
	<path class="st17" d="M254.5,129.5c0,38.7-20.1,57.5-42.9,66.5c-1.5,0.6-3.1,1.2-4.6,1.7c-0.2,0.1-0.4,0.1-0.7,0.2
		c-1,0.3-2,0.7-3,1c-0.5,0.1-0.9,0.3-1.3,0.4c-1.2,0.3-2.3,0.6-3.5,0.9c-5.1,1.3-10.2,2.2-15,2.8c-0.8,0.1-1.6,0.2-2.5,0.3
		c-0.5,0.1-0.9,0.1-1.4,0.2c-0.4,0-0.7,0.1-1,0.1c-0.4,0-0.9,0.1-1.3,0.1c-0.8,0.1-1.5,0.1-2.3,0.2c-1.9,0.1-3.8,0.3-5.5,0.3
		c-1.1,0-2.1,0.1-3.2,0.1c-6,0.2-11,0-14.1,0c-0.4,0-0.8,0-1.1,0c-0.4,0-0.7,0-1.1,0c-24-0.4-48.1-13.4-84.9-13.4
		C47.9,190.9,0,174.4,0,124.6C0,17.2,114.9,0,149,0c53.4,0,86.9,9.4,86.9,45.4C235.9,83.9,254.5,91.9,254.5,129.5z"/>
	<path class="st18" d="M179.6,41.9v161.6c-0.4,0-0.7,0.1-1,0.1c-0.4,0-0.9,0.1-1.3,0.1c-0.8,0.1-1.5,0.1-2.3,0.2
		c-1.9,0.1-3.8,0.3-5.5,0.3c-1.1,0-2.1,0.1-3.2,0.1c-6,0.2-11,0-14.1,0c-0.4,0-0.8,0-1.1,0c-0.4,0-0.7,0-1.1,0V27.6l1.3,0.6
		L179.6,41.9z"/>
	<path class="st19" d="M159.7,166.3L159.7,166.3c-1,0-1.8-0.8-1.8-1.8V45.2c0-1,0.8-1.8,1.8-1.8h0c1,0,1.8,0.8,1.8,1.8v119.3
		C161.4,165.5,160.6,166.3,159.7,166.3z"/>
	<path class="st19" d="M164.8,194.5L164.8,194.5c-1,0-1.8-0.8-1.8-1.8V73.4c0-1,0.8-1.8,1.8-1.8h0c1,0,1.8,0.8,1.8,1.8v119.3
		C166.5,193.7,165.8,194.5,164.8,194.5z"/>
	<path class="st19" d="M206.3,36v162c-1,0.3-2,0.7-3,1c-0.5,0.1-0.9,0.3-1.3,0.4c-1.2,0.3-2.3,0.6-3.5,0.9c-5.1,1.3-10.2,2.2-15,2.8
		c-0.8,0.1-1.6,0.2-2.5,0.3c-0.5,0.1-0.9,0.1-1.4,0.2V41.9l12.2-2.7l2.3-0.5L206.3,36z"/>
	<polygon class="st20" points="67.7,166.3 172.6,143 172.6,139.6 67.7,156.1 	"/>
	<polygon class="st18" points="58.4,151.6 58.4,161.8 67.7,166.3 67.7,156.1 	"/>
	<path class="st20" d="M186.6,176.7L186.6,176.7c-1,0-1.8-0.8-1.8-1.8V55.6c0-1,0.8-1.8,1.8-1.8l0,0c1,0,1.8,0.8,1.8,1.8v119.3
		C188.3,175.9,187.5,176.7,186.6,176.7z"/>
	<path class="st20" d="M202,155.4v43.9c-1.2,0.3-2.3,0.6-3.5,0.9v-44.9c0-1,0.8-1.8,1.8-1.8C201.2,153.7,202,154.4,202,155.4z"/>
	<path class="st20" d="M194.1,165.3L194.1,165.3c-0.6,0-1.1-0.5-1.1-1.1v-49.5c0-0.6,0.5-1.1,1.1-1.1l0,0c0.6,0,1.1,0.5,1.1,1.1
		v49.5C195.2,164.7,194.7,165.3,194.1,165.3z"/>
	<path class="st19" d="M177.3,162.1v41.6c-0.8,0.1-1.5,0.1-2.3,0.2v-41.8c0-0.6,0.5-1.1,1.1-1.1S177.3,161.5,177.3,162.1z"/>
	<path class="st20" d="M193,87L193,87c-0.6,0-1.1-0.5-1.1-1.1V36.4c0-0.6,0.5-1.1,1.1-1.1l0,0c0.6,0,1.1,0.5,1.1,1.1v49.5
		C194.1,86.5,193.6,87,193,87z"/>
	<path class="st19" d="M167.2,108.8L167.2,108.8c-0.6,0-1.1-0.5-1.1-1.1V58.1c0-0.6,0.5-1.1,1.1-1.1l0,0c0.6,0,1.1,0.5,1.1,1.1v49.5
		C168.4,108.3,167.9,108.8,167.2,108.8z"/>
	<path class="st21" d="M169,65.3L169,65.3c-2.5-1.2-5.1-1.5-7.5-1l0,0l-108.3,24l20.3,74.3l109.3-24.1V87.1
		C182.7,77.8,177.4,69.3,169,65.3z"/>
	<polygon class="st20" points="121.2,154.5 172.6,179.4 172.6,162.6 144.6,149.2 	"/>
	<linearGradient id="SVGID_4_" gradientUnits="userSpaceOnUse" x1="117.779" y1="88.1797" x2="109.1812" y2="60.904">
		<stop  offset="0" style="stop-color:#FFFFFF;stop-opacity:0"/>
		<stop  offset="1" style="stop-color:#FFFFFF"/>
	</linearGradient>
	<path class="st22" d="M53.2,88.3l108.3-24c0,0,13.5-0.1,19.5,19.2L73.2,107.7C73.2,107.7,67.8,91.9,53.2,88.3z"/>
	<g class="st2">
		<path class="st23" d="M83,119.3c-0.2,0,0.9,0.5,0.8,0.5c-3.2,0-4.1-2.5-4.1-5.1c0-2.7,2.7-6.4,4.6-6.4c0.2,0,0.4,0,0.6,0.1
			c2.1,0.5,3.3,3.3,2.6,6.3C86.8,117.3,84.9,119.3,83,119.3z"/>
		<polygon class="st23" points="79.6,114.7 79.6,53.7 103.6,48.4 104.4,48.9 86,67.9 86,114.7 		"/>
	</g>
	<g class="st2">
		<path class="st24" d="M83.7,119.8c-0.2,0-0.4,0-0.6-0.1c-2.1-0.5-3.3-3.3-2.6-6.3c0.6-2.7,2.5-4.7,4.4-4.7c0.2,0,0.4,0,0.6,0.1
			c2.1,0.5,3.3,3.3,2.6,6.3C87.6,117.8,85.7,119.8,83.7,119.8z"/>
		<polygon class="st24" points="80.4,115.2 80.4,54.2 104.4,48.9 104.4,64.6 86.8,68.4 86.8,115.2 		"/>
	</g>
	<polygon class="st19" points="179.6,45.6 218.3,37 179.6,18.3 140.9,26.8 	"/>
	<polygon class="st19" points="218.3,30.3 218.3,37 140.9,26.8 140.9,20.1 	"/>
	<polygon class="st18" points="179.6,38.9 218.3,30.3 179.6,11.5 140.9,20.1 	"/>
	<polygon class="st19" points="172.6,179.4 121.2,154.5 119.3,154.9 170.1,179.4 	"/>
	<path class="st21" d="M84.1,117c-0.1,0-0.2,0-0.3,0c-1-0.2-1.6-1.6-1.3-3.1c0.3-1.3,1.2-2.3,2.2-2.3c0.1,0,0.2,0,0.3,0
		c1,0.2,1.6,1.6,1.3,3.1C86,116,85,117,84.1,117z"/>
	<polygon class="st25" points="72.8,97.1 74.9,98.5 71.4,108.8 	"/>
	<path class="st16" d="M71.8,106.1l-0.8,4.5l-9.4-16.8l2.6,0.2C67.3,96.5,70.5,100.4,71.8,106.1z"/>
	<path class="st25" d="M73.4,111.2v51.3c0,0-1-34.9-1-51s-14-21.1-14-21.1c-7.1-2.2-11.3,0.3-11.3,0.3c0,0,0,0,0,0
		c3.4-2.7,8.2-3.5,12.6-1.4c4.2,2,7.6,5.2,10,9C72.1,102.1,73.4,106.6,73.4,111.2z"/>
	<g class="st2">
		<path class="st11" d="M73.8,94.9l-1.5,8.8c-0.6-1.9-1.5-3.7-2.5-5.4c-0.9-1.5-2-2.9-3.3-4.1L73.8,94.9z"/>
	</g>
	<path class="st26" d="M72.3,103.7l-0.6,3.6c-1.3-5.8-5.1-10.9-8-13.4l2.9,0.3c1.2,1.3,2.3,2.6,3.3,4.1
		C70.8,100,71.6,101.8,72.3,103.7z"/>
	<path class="st27" d="M73.4,162.6l-30.9-15v-47.4c0-3.9,1.8-7.3,4.6-9.4c0,0,0,0,0,0l0,0c0.4-0.2,4.5-2.4,11.3-0.3
		c0,0,14,5,14,21.1S73.4,162.6,73.4,162.6z"/>
	<path class="st28" d="M57.7,91.4L57.7,91.4L57.7,91.4c0-1.5-0.7-2.7-1.7-2.9c-0.1,0-0.2,0-0.3,0c-1.2,0-2.3,1.2-2.6,2.8
		c-0.1,0.4-0.1,0.9-0.1,1.3l0,0l1.4,9.8l0,0c0,0.7,0.3,1.2,0.8,1.3c0.1,0,0.1,0,0.2,0c0.6,0,1.1-0.6,1.3-1.4l1-10.2
		C57.7,91.9,57.7,91.7,57.7,91.4z"/>
	<path class="st21" d="M57.1,91.4L57.1,91.4L57.1,91.4c0-1.5-0.7-2.7-1.7-2.9c-0.1,0-0.2,0-0.3,0c-1.2,0-2.3,1.2-2.6,2.8
		c-0.1,0.4-0.1,0.9-0.1,1.3l0,0l1.4,9.8l0,0c0,0.7,0.3,1.2,0.8,1.3c0.1,0,0.1,0,0.2,0c0.6,0,1.1-0.6,1.3-1.4l1-10.2
		C57.1,91.9,57.1,91.7,57.1,91.4z"/>
	<path class="st27" d="M54.6,92.6c0,0-0.1,0-0.1,0c-0.4-0.1-0.7-0.7-0.6-1.3c0.1-0.5,0.5-0.9,0.9-1c0,0,0.1,0,0.1,0
		c0.4,0.1,0.7,0.7,0.6,1.3C55.4,92.2,55,92.6,54.6,92.6z"/>
	<circle class="st16" cx="82.4" cy="35.2" r="1"/>
	<circle class="st16" cx="219.3" cy="122.1" r="1"/>
	<circle class="st16" cx="10.5" cy="117" r="1"/>
	<circle class="st16" cx="213.4" cy="73.4" r="1"/>
	<circle class="st16" cx="131.1" cy="52.4" r="1"/>
	<circle class="st16" cx="237.9" cy="125.4" r="1"/>
	<circle class="st16" cx="99.3" cy="176.7" r="1"/>
	<circle class="st16" cx="119.3" cy="25.2" r="1.7"/>
	<circle class="st16" cx="227.4" cy="104.9" r="1.7"/>
	<circle class="st16" cx="22" cy="103" r="1.7"/>
	<circle class="st16" cx="40.8" cy="71.4" r="1.7"/>
</g>
<g>
	<linearGradient id="SVGID_5_" gradientUnits="userSpaceOnUse" x1="211.7995" y1="216.1319" x2="6.3098" y2="-62.8541">
		<stop  offset="0" style="stop-color:#474B9F"/>
		<stop  offset="1" style="stop-color:#F179AF"/>
	</linearGradient>
	<path class="st29" d="M91.4,0c36.8,0,63.8,33,117.3,26.7c26.8-3.2,45.8,7.7,45.8,28.3c0,16.2-15,32-15,46.1c0,20.7,15,17.4,15,46.2
		c0,45.5-108.7,57-132,57S0,205.9,0,138.4c0-32.9,35.7-40,35.7-82.3C35.7,11.4,64.6,0,91.4,0z"/>
	<g>
		
			<ellipse transform="matrix(0.9753 -0.2209 0.2209 0.9753 -32.5955 47.305)" class="st30" cx="195.2" cy="169.4" rx="16.1" ry="6.2"/>
		<path class="st31" d="M202.1,54.1C202.1,54.1,202.1,54.1,202.1,54.1c0,16.7-11.6,31-27.8,34.6l-91.6,20.2
			c-15.1,3.3-29.6-8-29.8-23.5c0-0.1,0-0.1,0-0.2l1.3-0.3l3.7-0.8l15-3.4l2.9-0.7l6.5-1.5c0,0,0,0,0,0l18.8-4.2l0.5-0.1l2.6-0.6l0,0
			c0,0.4,0,0.8,0.1,1.2c0,0.1,0,0.1,0,0.2c0.4,2.3,1.7,4.2,3.4,5.5h0c0.6,0.4,1.2,0.7,1.8,1c1,0.4,2.2,0.7,3.3,0.7
			c0.2,0,0.4,0,0.6,0c0.4,0,0.9-0.1,1.3-0.2l29.6-6.6c0.4-0.1,0.7-0.2,1-0.3c3.6-1.3,5.9-4.9,5.4-8.7l-0.2-2.2l0-0.2l1.4-0.3
			l2.9-0.6l8.3-1.6l33.8-6.5l0.4-0.1L202.1,54.1z"/>
		<path class="st5" d="M202.1,54c0,16.6-11.6,31-27.8,34.6l-91.6,20.2c-15.2,3.4-29.7-8.1-29.8-23.7l5.1-1.1l5.3,2l-1.6,3l1.3,2.6
			c2.5,5.5,8.1,9.3,14.4,9.3c1.2,0,2.3-0.1,3.5-0.4l91.6-20.2c8.5-1.9,15.4-7.8,18.8-15.5l1.1-2.9l5.2-7.1L202.1,54z"/>
		<path class="st5" d="M113.5,82.1l-31.1,6.8l11.8-9.1l6.4-4.9l1.1-0.8l2.6-0.6c0,0.5,0,1,0.1,1.4c0.4,2.3,1.7,4.2,3.4,5.5h0
			c0.6,0.4,1.2,0.8,1.8,1c1,0.4,2.2,0.7,3.3,0.7C113.1,82.2,113.3,82.2,113.5,82.1z"/>
		<path class="st10" d="M104.4,74.8c0,0.1,0,0.1,0,0.2c-0.6,5-9.7,10.9-22,14c-0.5,0.1-1,0.3-1.6,0.4c-6.9,1.6-13.5,1.9-18.5,1.3
			c-5-0.7-8.4-2.4-9.4-4.9c-0.1-0.2-0.1-0.3-0.2-0.5c-0.1-0.4-0.1-0.8-0.1-1.2c0.1-0.7,0.3-1.5,0.7-2.2C56,77,65,72,76.3,69.4
			c10-2.3,19.2-2,24.2,0.2c0.8,0.4,1.5,0.8,2.1,1.3c0.5,0.4,1,0.9,1.3,1.4c0.2,0.4,0.4,0.8,0.5,1.2v0
			C104.4,73.9,104.4,74.3,104.4,74.8z"/>
		<polygon class="st10" points="102.3,69.2 103.9,72.4 53.2,86.1 51.4,82.3 		"/>
		
			<ellipse transform="matrix(0.9753 -0.2209 0.2209 0.9753 -14.7792 18.8213)" class="st32" cx="76.8" cy="75.5" rx="26.4" ry="10.2"/>
		<path class="st33" d="M88.2,73.9c-1.3-2-6.5-2.5-12.2-1.2c-5.5,1.2-9.8,3.8-10.4,6.1c-0.1-0.2-0.2-0.4-0.3-0.6
			c-0.6-2.5,4.1-5.6,10.5-7c6.3-1.4,11.9-0.6,12.5,1.8C88.3,73.2,88.3,73.5,88.2,73.9z"/>
		
			<ellipse transform="matrix(0.9183 -0.3958 0.3958 0.9183 -36.0018 34.9159)" class="st34" cx="66.6" cy="104.7" rx="1.9" ry="2.3"/>
		<path class="st35" d="M154.8,67.9c0,0-2-1.3-2-1.3c0.9,8.8-7.2,10.3-7.2,10.3l-32.5,7.4c-0.5,0.1-0.8,0.6-0.7,1.2
			c0.1,0.5,0.6,0.8,1.2,0.7l30.8-7c2.9-0.7,5.9-1.9,8-4.2c1.3-1.4,2.1-3.1,2.4-5c0.1-0.5,0.1-1,0.1-1.5
			C154.8,68.4,154.9,67.9,154.8,67.9z"/>
		
			<ellipse transform="matrix(0.9753 -0.2209 0.2209 0.9753 -8.4699 40.3916)" class="st10" cx="176.4" cy="58.1" rx="26.4" ry="10.2"/>
		<polygon class="st10" points="200.1,47.9 201.7,51.2 151,64.8 149.2,61 		"/>
		
			<ellipse transform="matrix(0.9753 -0.2209 0.2209 0.9753 -7.6646 39.8951)" class="st32" cx="174.6" cy="54.2" rx="26.4" ry="10.2"/>
		<path class="st33" d="M186.1,52.3c-1.3-1.9-6.5-2.5-12.2-1.2c-5.8,1.3-10.2,4-10.5,6.4c-0.1-0.2-0.2-0.4-0.3-0.7
			c-0.6-2.5,4.1-5.6,10.5-7.1c6.3-1.4,11.9-0.6,12.5,1.8C186.1,51.8,186.1,52.1,186.1,52.3z"/>
		<g>
			<g>
				<path class="st34" d="M177.2,50.7c0,0.1,0,0.2-0.1,0.2c-0.2,0.3-0.7,0.6-1.5,0.8c-0.8,0.2-1.5,0.1-1.8-0.2c0,0-0.1-0.1-0.1-0.1
					c-0.1-0.4,0.6-0.8,1.5-1C176.3,50.2,177.1,50.3,177.2,50.7z"/>
				<path class="st34" d="M182.4,52.3c0,0.1,0,0.2-0.1,0.2c-0.2,0.3-0.7,0.6-1.5,0.8c-0.8,0.2-1.6,0.1-1.8-0.2c0,0-0.1-0.1-0.1-0.1
					c-0.1-0.4,0.6-0.8,1.5-1C181.5,51.8,182.3,51.9,182.4,52.3z"/>
				<path class="st34" d="M178.6,55.9c0,0.1,0,0.2-0.1,0.2c-0.2,0.3-0.7,0.6-1.5,0.8c-0.8,0.2-1.5,0.1-1.8-0.2c0,0-0.1-0.1-0.1-0.1
					c-0.1-0.4,0.6-0.8,1.5-1C177.8,55.5,178.6,55.6,178.6,55.9z"/>
				<path class="st34" d="M171.1,52.7c0,0.1,0,0.2-0.1,0.2c-0.2,0.3-0.7,0.6-1.5,0.8c-0.8,0.2-1.5,0.1-1.8-0.2c0,0-0.1-0.1-0.1-0.1
					c-0.1-0.4,0.6-0.8,1.5-1C170.2,52.3,171,52.4,171.1,52.7z"/>
				<path class="st34" d="M171.1,56.5c0,0.1,0,0.2-0.1,0.2c-0.2,0.3-0.7,0.6-1.5,0.8c-0.8,0.2-1.5,0.1-1.8-0.2c0,0-0.1-0.1-0.1-0.1
					c-0.1-0.4,0.6-0.8,1.5-1C170.2,56.1,171,56.2,171.1,56.5z"/>
			</g>
			<g>
				<path class="st34" d="M78.9,72.2c0,0.1,0,0.2-0.1,0.2c-0.2,0.3-0.7,0.6-1.5,0.8c-0.8,0.2-1.5,0.1-1.8-0.2c0,0-0.1-0.1-0.1-0.1
					c-0.1-0.4,0.6-0.8,1.5-1C78,71.7,78.8,71.8,78.9,72.2z"/>
				<path class="st34" d="M84.1,73.8c0,0.1,0,0.2-0.1,0.2c-0.2,0.3-0.7,0.6-1.5,0.8c-0.8,0.2-1.5,0.1-1.8-0.2c0,0-0.1-0.1-0.1-0.1
					c-0.1-0.4,0.6-0.8,1.5-1C83.2,73.3,84,73.4,84.1,73.8z"/>
				<path class="st34" d="M80.3,77.5c0,0.1,0,0.2-0.1,0.2c-0.2,0.3-0.7,0.6-1.5,0.8c-0.8,0.2-1.5,0.1-1.8-0.2c0,0-0.1-0.1-0.1-0.1
					c-0.1-0.4,0.6-0.8,1.5-1C79.4,77,80.3,77.1,80.3,77.5z"/>
				<path class="st34" d="M72.8,74.3c0,0.1,0,0.2-0.1,0.2c-0.2,0.3-0.7,0.6-1.5,0.8c-0.8,0.2-1.5,0.1-1.8-0.2c0,0-0.1-0.1-0.1-0.1
					c-0.1-0.4,0.6-0.8,1.5-1C71.9,73.8,72.7,73.9,72.8,74.3z"/>
				<path class="st34" d="M72.8,78c0,0.1,0,0.2-0.1,0.2c-0.2,0.3-0.7,0.6-1.5,0.8c-0.8,0.2-1.5,0.1-1.8-0.2c0,0-0.1-0.1-0.1-0.1
					c-0.1-0.4,0.6-0.8,1.5-1C71.9,77.6,72.7,77.7,72.8,78z"/>
			</g>
			<g>
				<g>
					<path class="st5" d="M177.1,50.9c-0.2,0.3-0.7,0.6-1.5,0.8c-0.8,0.2-1.5,0.1-1.8-0.2c0.2-0.3,0.7-0.6,1.5-0.8
						C176.2,50.6,176.9,50.7,177.1,50.9z"/>
					<path class="st5" d="M182.3,52.5c-0.2,0.3-0.7,0.6-1.5,0.8c-0.8,0.2-1.6,0.1-1.8-0.2c0.2-0.3,0.7-0.6,1.5-0.8
						C181.4,52.2,182.1,52.2,182.3,52.5z"/>
					<path class="st5" d="M178.6,56.2c-0.2,0.3-0.7,0.6-1.5,0.8c-0.8,0.2-1.5,0.1-1.8-0.2c0.2-0.3,0.7-0.6,1.5-0.8
						C177.6,55.9,178.4,55.9,178.6,56.2z"/>
					<path class="st5" d="M171.1,53c-0.2,0.3-0.7,0.6-1.5,0.8c-0.8,0.2-1.5,0.1-1.8-0.2c0.2-0.3,0.7-0.6,1.5-0.8
						C170.1,52.7,170.8,52.7,171.1,53z"/>
					<path class="st5" d="M171.1,56.8c-0.2,0.3-0.7,0.6-1.5,0.8c-0.8,0.2-1.5,0.1-1.8-0.2c0.2-0.3,0.7-0.6,1.5-0.8
						C170.1,56.4,170.8,56.5,171.1,56.8z"/>
				</g>
				<g>
					<path class="st5" d="M78.8,72.4c-0.2,0.3-0.7,0.6-1.5,0.8c-0.8,0.2-1.5,0.1-1.8-0.2c0.2-0.3,0.8-0.6,1.5-0.8
						C77.9,72.1,78.6,72.2,78.8,72.4z"/>
					<path class="st5" d="M84,74c-0.2,0.3-0.7,0.6-1.5,0.8c-0.8,0.2-1.5,0.1-1.8-0.2c0.2-0.3,0.7-0.6,1.5-0.8
						C83.1,73.7,83.8,73.7,84,74z"/>
					<path class="st5" d="M80.3,77.7c-0.2,0.3-0.7,0.6-1.5,0.8c-0.8,0.2-1.5,0.1-1.8-0.2c0.2-0.3,0.7-0.6,1.5-0.8
						C79.3,77.4,80.1,77.4,80.3,77.7z"/>
					<path class="st5" d="M72.7,74.5c-0.2,0.3-0.7,0.6-1.5,0.8c-0.8,0.2-1.5,0.1-1.8-0.2c0.2-0.3,0.8-0.6,1.5-0.8
						C71.8,74.2,72.5,74.2,72.7,74.5z"/>
					<path class="st5" d="M72.7,78.3c-0.2,0.3-0.7,0.6-1.5,0.8c-0.8,0.2-1.5,0.1-1.8-0.2c0.2-0.3,0.8-0.6,1.5-0.8
						C71.8,77.9,72.6,78,72.7,78.3z"/>
				</g>
			</g>
		</g>
		<g>
			<path class="st4" d="M206.3,145.8c-1,0.3-2.5,0.9-3.2,1.3c0.6,0.6,1.7,1.6,2.5,2.2c2.5,2,4.7,3.8,4,5.9c-0.6,2.1-3.4,2.3-6.5,2.5
				c-0.9,0.1-2.2,0.2-3.1,0.4c-0.1,0-0.2,0-0.3,0.1c0,0.1,0.1,0.2,0.2,0.3c0.4,0.7,1.2,1.7,1.7,2.4c1.9,2.6,3.6,4.8,2.5,6.7
				c-1.1,1.8-3.8,1.4-6.9,1c-0.6-0.1-1.3-0.2-2-0.3c-0.6-0.1-1.1-0.1-1.5-0.1c0.2,0.6,0.5,1.5,0.9,2.2c0.4,1.4-0.6,3.1-2.2,2.1
				c-0.2-0.1-0.5-0.3-0.6-0.5c0,0,0,0,0-0.1c-0.1-0.3-0.3-0.5-0.5-0.8c-0.3-0.7-0.6-1.3-0.7-1.9c-0.1-0.4-0.2-0.8-0.3-1.2
				c0-0.3,0-0.6,0-0.9c0-0.1,0-0.1,0-0.2c0-0.2,0.1-0.4,0.2-0.6c0.1-0.2,0.2-0.3,0.3-0.5c0.7-0.9,1.8-1.2,3.2-1.2c0.2,0,0.5,0,0.7,0
				c0.8,0,1.6,0.1,2.4,0.3c0.2,0,0.4,0.1,0.6,0.1c0.9,0.1,2.1,0.3,3,0.4c-0.5-0.8-1.3-1.9-1.8-2.6c-0.2-0.2-0.3-0.4-0.5-0.6
				c-0.2-0.2-0.3-0.4-0.5-0.6c-0.1-0.2-0.3-0.4-0.4-0.5c-0.7-1-1.2-2-1.4-2.8c0-0.2-0.1-0.4-0.1-0.6c0-0.4,0.1-0.7,0.2-1.1
				c0.1-0.1,0.1-0.2,0.2-0.3c0-0.1,0.1-0.2,0.2-0.2c0,0,0.1-0.1,0.1-0.1c0.1-0.1,0.1-0.1,0.2-0.2c0.2-0.2,0.4-0.3,0.7-0.5
				c0.1-0.1,0.2-0.1,0.4-0.2c0.1,0,0.2-0.1,0.3-0.1c0.5-0.2,1-0.3,1.7-0.4c0.1,0,0.3,0,0.4-0.1c0.3,0,0.6-0.1,0.8-0.1
				c0.5-0.1,1.1-0.1,1.7-0.2c0.9-0.1,2.1-0.2,3-0.3c-0.6-0.6-1.7-1.5-2.4-2.1c-0.5-0.4-0.9-0.7-1.3-1.1c-0.2-0.2-0.4-0.3-0.6-0.5
				c-0.5-0.5-1-1-1.4-1.5c-0.1-0.1-0.1-0.1-0.2-0.2c0-0.1-0.1-0.1-0.1-0.2c-0.1-0.1-0.1-0.2-0.2-0.3c-0.1-0.1-0.1-0.2-0.1-0.3
				c0-0.1-0.1-0.2-0.1-0.3c0-0.1,0-0.1,0-0.2c0-0.1,0-0.1,0-0.2c0-0.2,0-0.5,0-0.7c0-0.2,0.1-0.4,0.2-0.6c0-0.1,0.1-0.1,0.1-0.2
				c0-0.1,0.1-0.2,0.1-0.2c0-0.1,0.1-0.2,0.2-0.2c0-0.1,0.1-0.1,0.1-0.1c0.1-0.1,0.1-0.2,0.2-0.2c0.3-0.3,0.6-0.5,1-0.7
				c0.1-0.1,0.2-0.1,0.4-0.2c0.4-0.2,0.9-0.4,1.4-0.6c0.2-0.1,0.3-0.1,0.5-0.2c0.1,0,0.2-0.1,0.3-0.1c0.4-0.2,0.9-0.3,1.3-0.5
				c0.8-0.3,2-0.7,2.8-1.1c-0.8-0.5-2-1-2.8-1.3c-0.4-0.2-0.7-0.3-1-0.5c-0.5-0.2-1-0.5-1.4-0.7c-0.1,0-0.1-0.1-0.2-0.1
				c-0.2-0.1-0.4-0.2-0.6-0.4c-0.3-0.2-0.5-0.3-0.7-0.5c-0.3-0.2-0.5-0.5-0.7-0.7c-0.1-0.1-0.1-0.2-0.2-0.2
				c-0.1-0.1-0.1-0.2-0.1-0.2c-0.1-0.3-0.2-0.6-0.3-0.9c0-0.3,0-0.7,0.1-1c0-0.1,0-0.2,0.1-0.3c0.5-1.2,1.7-2.2,3.1-3.3
				c0.3-0.3,0.7-0.5,1.1-0.8c0.7-0.5,1.7-1.2,2.3-1.8c-0.9-0.2-2.1-0.3-3-0.4c-0.5,0-0.9-0.1-1.3-0.1c-0.5-0.1-0.9-0.1-1.3-0.2
				c-0.1,0-0.3,0-0.4-0.1c-0.8-0.2-1.6-0.4-2.2-0.7c-0.1,0-0.2-0.1-0.2-0.2c-0.1-0.1-0.2-0.1-0.3-0.2c-0.2-0.1-0.3-0.3-0.5-0.5
				c-0.1-0.1-0.1-0.2-0.2-0.3c-0.2-0.4-0.2-0.7-0.2-1.1c0-0.1,0-0.3,0-0.4v-0.1c0-0.1,0.1-0.3,0.1-0.4c0-0.2,0.1-0.3,0.2-0.5
				c0.1-0.2,0.1-0.3,0.2-0.5c0.3-0.7,0.7-1.4,1.2-2.1c0.3-0.4,0.6-0.9,0.9-1.3c0.5-0.7,1.2-1.7,1.6-2.5c-0.9,0.2-2,0.5-2.8,0.7
				c-2.9,0.8-5.4,1.5-6.8,0.2c-1.4-1.3-0.9-3.7-0.3-6.7c0.2-0.8,0.4-2.1,0.5-3c-0.7,0.5-1.7,1.4-2.4,2c-2.1,2-3.8,3.5-5.6,3.2
				c-1.8-0.3-2.9-2.5-4.2-5c-0.4-0.8-1-2-1.5-2.7c-0.2,0.8-0.5,2-0.6,2.8c-0.6,3-1.1,5.7-3,6.4c-1.8,0.7-3.7-0.8-6.2-2.6
				c-0.8-0.6-2.1-1.6-2.9-2c0,0.9,0.1,2.3,0.2,3.2c0.3,3.1,0.5,5.9-1.3,7.1c-1.7,1.1-4-0.1-6.7-1.6c-0.9-0.5-2.3-1.3-3.2-1.6
				c0,0.9,0.3,2.4,0.5,3.3c0.6,3.1,1.1,5.8-0.6,7.1c-1.7,1.3-4.1,0.1-6.9-1.2c-0.9-0.5-2.4-1.1-3.2-1.4c0,0.9,0.3,2.4,0.5,3.4
				c0.6,3.1,1.2,5.8-0.5,7.1c-1.7,1.3-4.1,0.1-6.9-1.2c-0.9-0.5-2.4-1.1-3.2-1.4c0,0.9,0.3,2.4,0.5,3.5c0.5,3.1,1,5.8-0.7,7
				c-1.8,1.3-4.1,0-6.9-1.5c-0.9-0.5-2.3-1.3-3.1-1.5c-0.1,0.9,0.1,2.5,0.2,3.5c0.2,1.7,0.3,3.2,0.2,4.5c0,0.2-0.1,0.5-0.1,0.7
				c0,0,0,0.1,0,0.1c-0.1,0.2-0.2,0.5-0.3,0.7c-0.1,0.1-0.1,0.2-0.2,0.3c-0.1,0.1-0.1,0.2-0.2,0.3c-0.1,0.1-0.2,0.2-0.3,0.2
				c-0.1,0.1-0.2,0.1-0.3,0.2c-0.2,0.1-0.4,0.2-0.7,0.3c-0.6,0.2-1.3,0.1-2.1-0.2c-0.2-0.1-0.3-0.1-0.5-0.2
				c-0.2-0.1-0.3-0.1-0.5-0.2c-0.2-0.1-0.4-0.2-0.6-0.3c-0.2-0.1-0.3-0.2-0.5-0.3c-0.2-0.1-0.3-0.2-0.5-0.3c-0.5-0.3-1-0.7-1.5-1
				c-0.9-0.6-2.2-1.5-3-1.8c-0.2,0.8-0.2,2.5-0.3,3.6c0,0.2,0,0.3,0,0.5c0,0.6,0,1.1-0.1,1.6c0,0.2,0,0.3,0,0.5c0,0.5-0.1,1-0.2,1.4
				c0,0.1-0.1,0.3-0.1,0.4c0,0.1-0.1,0.2-0.1,0.4c0,0,0,0,0,0.1c0,0.1-0.1,0.2-0.1,0.3c0,0.1-0.1,0.2-0.2,0.3
				c-0.1,0.1-0.2,0.3-0.2,0.4c-0.1,0.1-0.1,0.2-0.2,0.2c-0.1,0.1-0.2,0.2-0.3,0.2c-0.2,0.2-0.4,0.3-0.6,0.4
				c-0.5,0.2-0.9,0.2-1.4,0.2c-0.1,0-0.2,0-0.3-0.1c-1.5-0.3-2.9-1.7-4.6-3.3c-0.1,0-0.1-0.1-0.2-0.1c-0.7-0.7-1.9-1.9-2.6-2.3
				c-0.4,0.7-0.8,2.2-1.1,3.3c0,0.1,0,0.1,0,0.1c-0.8,3.1-1.5,5.8-3.7,6.1c-2.2,0.3-3.6-2.1-5.2-4.9c-0.1-0.2-0.3-0.5-0.5-0.8
				c-0.5-0.8-1.1-1.8-1.5-2.2c-0.4,0.4-1,1.2-1.5,2c-0.2,0.3-0.4,0.6-0.6,0.9c-1.8,2.7-3.3,5.1-5.6,4.6c-1.9-0.4-2-2.6-2.1-6.3
				c0-0.1,0-0.3,0-0.5c-0.1,0.2-0.3,0.4-0.4,0.6c-1.9,3.1-3,4.8-4.8,4.2c-1.9-0.6-1.6-2.9-1.2-6.6c0-0.2,0.1-0.4,0.1-0.6
				c-0.2,0.2-0.4,0.5-0.6,0.7c-2.4,2.7-3.8,4.3-5.4,3.3c-1.7-1-1-3.1,0.2-6.7c0.1-0.2,0.2-0.5,0.3-0.8c-0.3,0.2-0.7,0.4-0.9,0.6
				c-3,2-4.8,3.2-6.1,1.8c-1.4-1.5-0.1-3.3,2.1-6.3c0.2-0.3,0.4-0.6,0.6-0.9c-0.4,0.1-0.8,0.2-1.2,0.3c-3.5,1-5.6,1.5-6.5-0.3
				c-0.9-1.8,1-3.1,4-5.2c0.1-0.1,0.3-0.2,0.4-0.3c0.1-0.1,0.3-0.2,0.4-0.3c0,0,0,0,0.1-0.1c0,0-0.1,0-0.1,0c-0.1,0-0.1,0-0.2,0
				c-0.2,0-0.4,0-0.5,0c-0.1,0-0.2,0-0.3,0c-3.7-0.2-5.9-0.4-6.1-2.3c-0.2-2,1.9-2.6,5.3-3.8c0,0,0,0,0,0c0.2-0.1,0.5-0.2,0.8-0.3
				c-0.3-0.1-0.6-0.2-0.9-0.3c0,0,0,0-0.1,0c-0.8-0.3-1.6-0.5-2.2-0.8c-0.3-0.1-0.6-0.2-0.9-0.4c-0.1-0.1-0.3-0.1-0.4-0.2
				c-0.1-0.1-0.2-0.1-0.4-0.2c-0.2-0.1-0.4-0.3-0.6-0.4c-0.1-0.1-0.2-0.1-0.2-0.2c-0.4-0.4-0.6-1-0.6-1.6c0-0.3,0.1-0.5,0.2-0.7
				c0-0.1,0.1-0.1,0.1-0.2c0.1-0.1,0.1-0.2,0.2-0.2c0.1-0.1,0.1-0.1,0.2-0.2c0.1,0,0.1-0.1,0.2-0.1c0,0,0.1-0.1,0.1-0.1
				c0.1,0,0.1-0.1,0.2-0.1c0.5-0.3,1.2-0.4,2-0.6c0.2,0,0.5-0.1,0.8-0.1c0.4-0.1,0.8-0.1,1.3-0.2c0.3,0,0.5-0.1,0.8-0.1
				c0.2,0,0.4,0,0.7-0.1c-0.2-0.1-0.5-0.2-0.7-0.4c-0.3-0.1-0.5-0.3-0.7-0.4c-0.1-0.1-0.2-0.1-0.3-0.1c-0.2-0.1-0.4-0.2-0.6-0.3
				c-0.3-0.1-0.5-0.3-0.7-0.4c-0.5-0.3-0.9-0.6-1.3-0.9c-0.1-0.1-0.1-0.1-0.2-0.2c-0.1-0.1-0.2-0.2-0.3-0.3
				c-0.1-0.1-0.1-0.1-0.2-0.2c-0.1-0.1-0.1-0.1-0.1-0.2c0-0.1-0.1-0.1-0.1-0.2c0-0.1-0.1-0.2-0.1-0.2c0-0.1,0-0.1,0-0.2l0-0.1
				c0-0.3,0-0.5,0.1-0.8c0.1-0.3,0.2-0.6,0.4-0.8c0.1-0.1,0.2-0.2,0.3-0.3c0.1,0,0.1-0.1,0.2-0.1c0.2-0.1,0.4-0.2,0.7-0.3
				c0.2,0,0.4-0.1,0.6-0.1c0.2,0,0.4,0,0.6-0.1c0.6,0,1.3,0,2.2,0c0.4,0,0.9,0,1.3,0.1c0.2,0,0.3,0,0.5,0c-0.2-0.1-0.4-0.3-0.6-0.4
				c-0.3-0.2-0.7-0.5-1-0.7c-0.1-0.1-0.2-0.2-0.4-0.3c-0.3-0.2-0.7-0.5-0.9-0.7c-0.1-0.1-0.2-0.2-0.3-0.2c-0.1-0.1-0.2-0.1-0.2-0.2
				c-0.2-0.1-0.3-0.3-0.4-0.4c0,0,0,0,0,0c-0.1-0.1-0.2-0.3-0.3-0.4c-0.1-0.1-0.1-0.2-0.2-0.2c0-0.1-0.1-0.1-0.1-0.2
				c-0.1-0.2-0.1-0.3-0.2-0.5c0-0.1,0-0.1,0-0.2c0-0.3,0-0.7,0.2-1c0.3-0.6,0.7-1,1.3-1.2c0.1,0,0.2-0.1,0.4-0.1
				c0.3,0,0.6-0.1,0.9-0.1c0.2,0,0.4,0,0.5,0c0.4,0,0.8,0.1,1.2,0.1c0.7,0.1,1.5,0.2,2.4,0.4c0.1,0,0.2,0,0.4,0.1
				c-0.3-0.2-0.5-0.5-0.8-0.7c-0.3-0.3-0.6-0.5-0.8-0.8c-0.1-0.1-0.2-0.1-0.2-0.2c0,0,0,0,0,0c-0.2-0.2-0.4-0.4-0.5-0.5
				c-0.3-0.3-0.6-0.6-0.8-0.9c-0.1-0.1-0.1-0.1-0.2-0.2c-0.1-0.1-0.2-0.2-0.2-0.3c-0.1-0.1-0.1-0.2-0.2-0.2
				c-0.2-0.2-0.3-0.5-0.3-0.7c0-0.1-0.1-0.3-0.1-0.4c0-0.3,0.1-0.6,0.3-0.9c0.1-0.1,0.2-0.3,0.3-0.4c0.1-0.1,0.1-0.1,0.2-0.2
				c1-1.2,3.6-2.8,5.3-2.1c3.3,1.4-1.5,4.3-1.9,3.8c0.5,0.5,1.1,1.1,1.6,1.5c2.8,2.6,4.6,4.1,3.7,5.9c-0.8,1.6-2.6,1.3-6,0.7
				c2.7,1.9,4.2,3.2,3.6,4.8c-0.6,1.6-2.4,1.6-5.7,1.4c2.9,1.6,4.4,2.5,4.1,4.2c-0.3,1.6-2,1.9-5,2.2c2.9,0.9,4.4,1.6,4.4,3.3
				c0,1.5-1.4,2.2-3.9,3c2.6,0.2,4.1,0.5,4.5,2c0.4,1.3-0.6,2.3-2.4,3.7c2.2-0.5,3.6-0.6,4.4,0.5c0.8,1.2,0.2,2.5-1.2,4.5
				c2.1-1.3,3.4-1.9,4.6-1c1.3,0.9,0.9,2.5,0,5.2c1.9-2.1,3.2-3.2,4.6-2.6c1.5,0.7,1.4,2.5,1,5.6c1.7-2.6,2.8-4.2,4.4-3.7
				c1.7,0.5,1.8,2.4,1.9,6v0.1c0,0.2,0,0.4,0,0.7c0,0.3,0,0.7,0,1c0.3-0.5,0.7-1,1-1.5c0.1-0.1,0.2-0.3,0.3-0.4c1.6-2.5,3-4.7,5-4.6
				c2,0.1,3.3,2.3,4.8,4.9c0.2,0.3,0.3,0.6,0.5,0.9c0.1,0.1,0.1,0.2,0.1,0.2c0.1,0.2,0.2,0.3,0.3,0.5c0.3,0.4,0.5,0.8,0.7,1.1
				c0.1-0.2,0.2-0.5,0.3-0.8c0.1-0.2,0.1-0.4,0.2-0.7c0,0,0-0.1,0-0.1c0-0.1,0.1-0.3,0.1-0.4c0.1-0.4,0.2-0.8,0.3-1.1
				c0.8-3,1.5-5.5,3.4-6.1c2-0.6,3.8,1.3,6,3.4c0.4,0.4,0.9,0.8,1.4,1.3c0.4,0.4,0.8,0.7,1.2,1c0.1-0.4,0.1-1,0.2-1.6
				c0-0.6,0.1-1.2,0.1-1.7c0.1-3.1,0.2-5.8,2.1-6.7c1.8-0.9,4,0.5,6.5,2.3c0.8,0.6,2.1,1.4,2.9,1.8c0-0.9-0.1-2.4-0.2-3.4
				c-0.3-3.1-0.6-5.8,1.2-7c1.7-1.2,4.1,0.1,6.8,1.6c0.9,0.5,2.3,1.2,3.1,1.5c0-0.9-0.3-2.4-0.5-3.4c-0.5-3.1-1-5.7,0.7-7
				c1.7-1.3,4.1-0.1,6.9,1.2c0.9,0.4,2.3,1.1,3.2,1.4c0-0.9-0.3-2.4-0.5-3.5c-0.6-3.1-1.2-5.7,0.5-7c1.7-1.3,4.2-0.2,7,1.2
				c0.9,0.4,2.3,1.1,3.1,1.3c0-0.9-0.3-2.5-0.5-3.5c-0.6-3.1-1-5.7,0.7-7c1.8-1.3,4.2,0,7,1.6c0.9,0.5,2.3,1.2,3.1,1.5
				c0.1-0.9,0-2.6-0.1-3.7c-0.3-3.1-0.5-5.8,1.4-6.8c2-1.1,4.4,0.7,6.9,2.6c0.8,0.6,2.1,1.6,2.8,2c0.4-0.8,0.7-2.6,0.9-3.7
				c0.6-3.1,1.1-5.8,3.3-6.2c2.4-0.4,3.8,2.3,5.2,5.2c0.5,1,1.2,2.5,1.7,3.1c0.7-0.4,1.9-1.5,2.7-2.2c2.4-2.2,4.7-4.3,6.8-3
				c1.9,1.2,1.3,4,0.7,7.1c-0.2,1-0.5,2.5-0.6,3.4c0.8-0.1,2.4-0.5,3.4-0.8c3.1-0.9,5.8-1.6,7.1,0.2c1.3,1.8-0.3,4.1-2.1,6.8
				c-0.5,0.8-1.4,2-1.8,2.8c0,0,0,0.1-0.1,0.1c0,0,0.1,0,0.1,0c0.8,0.2,2.3,0.4,3.2,0.4c3.2,0.3,6,0.6,6.6,2.8
				c0.6,2.1-1.7,3.7-4.2,5.6c-0.7,0.5-1.7,1.2-2.4,1.8c0,0-0.1,0.1-0.1,0.1c-0.1,0.1-0.2,0.2-0.3,0.2c0.1,0,0.1,0.1,0.2,0.1
				c0.1,0.1,0.2,0.1,0.2,0.1c0.8,0.4,1.8,0.9,2.6,1.2c3,1.3,5.5,2.4,5.4,4.7C211.8,143.9,209.2,144.8,206.3,145.8z"/>
			<path class="st4" d="M89.2,153.1L89.2,153.1L89.2,153.1z"/>
			<path class="st4" d="M101.6,151.4"/>
		</g>
	</g>
	<circle class="st11" cx="105.6" cy="30.2" r="1.7"/>
	<circle class="st11" cx="34" cy="118.8" r="1.7"/>
	<circle class="st11" cx="45" cy="51.2" r="1.7"/>
	<circle class="st11" cx="123.8" cy="56.9" r="1.7"/>
	<circle class="st11" cx="98" cy="120.5" r="1.7"/>
	<circle class="st11" cx="166.8" cy="140.6" r="1"/>
	<circle class="st11" cx="133.6" cy="169.4" r="1"/>
	<circle class="st11" cx="211.9" cy="51.1" r="1"/>
	<circle class="st11" cx="63.9" cy="18.5" r="1"/>
	<circle class="st11" cx="136.7" cy="38.9" r="1"/>
	<circle class="st11" cx="14.7" cy="141.6" r="1"/>
	<circle class="st11" cx="225" cy="78.7" r="1.7"/>
	<circle class="st11" cx="167.5" cy="169.9" r="1.7"/>
</g>
</svg>
